ffmpeg started on 2025-07-23 at 12:49:26
Report written to "D:\Convert\FFMetrics\reports\ssim_report-6.txt"
Log level: 32
Command line:
ffmpeg -hide_banner -nostdin -i "G:\\\xc0\xed\xe8\xec\xe5\\\xce\xed\xe3\xee\xe8\xed\xe3\xe8\\!_11_\xcb\xe5\xf2\xee_2018\\\xc4\xe0\xe2\xe0\xe9\xf2\xe5 \xf1\xfb\xe3\xf0\xe0\xe5\xec\\[AniDub]_Asobi_Asobase_[SP2]_[720p_x264_Aac]_[Sergei_Vasya_DreamySleep]_HEVC.mkv" -i "G:\\\xc0\xed\xe8\xec\xe5\\\xce\xed\xe3\xee\xe8\xed\xe3\xe8\\!_11_\xcb\xe5\xf2\xee_2018\\\xc4\xe0\xe2\xe0\xe9\xf2\xe5 \xf1\xfb\xe3\xf0\xe0\xe5\xec\\[AniDub]_Asobi_Asobase_[SP2]_[720p_x264_Aac]_[Sergei_Vasya_DreamySleep].mp4" -lavfi "[0:v]settb=AVTB,setpts=PTS-STARTPTS,format=pix_fmts=yuv420p10,fps=24000/1001,scale=1280:720:flags=bicubic[main];[1:v]settb=AVTB,setpts=PTS-STARTPTS,format=pix_fmts=yuv420p,fps=24000/1001,scale=1280:720:flags=bicubic[ref];[main][ref]ssim=eof_action=endall:stats_file='D\\:/Convert/FFMetrics/logs/ssim_logfile-6.txt'" -f null -
Input #0, matroska,webm, from 'G:\Аниме\Онгоинги\!_11_Лето_2018\Давайте сыграем\[AniDub]_Asobi_Asobase_[SP2]_[720p_x264_Aac]_[Sergei_Vasya_DreamySleep]_HEVC.mkv':
  Metadata:
    COMPATIBLE_BRANDS: isomiso2avc1mp41
    MAJOR_BRAND     : isom
    MINOR_VERSION   : 512
    ENCODER         : Lavf61.7.100
  Duration: 00:05:28.23, start: -0.021000, bitrate: 519 kb/s
  Stream #0:0: Video: hevc (Main 10), yuv420p10le(tv, bt709, progressive), 1280x720 [SAR 1:1 DAR 16:9], 23.98 fps, 23.98 tbr, 1k tbn (default)
      Metadata:
        HANDLER_NAME    : VideoHandler
        VENDOR_ID       : [0][0][0][0]
        ENCODER         : Lavc61.19.100 libx265
        BPS             : 322222
        DURATION        : 00:05:28.231701417
        NUMBER_OF_FRAMES: 7871
        NUMBER_OF_BYTES : 13220422
        _STATISTICS_WRITING_APP: mkvpropedit v66.0.0 ('Josie') 64-bit
        _STATISTICS_WRITING_DATE_UTC: 2025-07-23 09:44:12
        _STATISTICS_TAGS: BPS DURATION NUMBER_OF_FRAMES NUMBER_OF_BYTES
  Stream #0:1(eng): Audio: aac (LC), 48000 Hz, stereo, fltp (default)
      Metadata:
        HANDLER_NAME    : SoundHandler
        VENDOR_ID       : [0][0][0][0]
        ENCODER         : Lavc61.19.100 aac
        BPS             : 192771
        DURATION        : 00:05:28.192000000
        NUMBER_OF_FRAMES: 15385
        NUMBER_OF_BYTES : 7908243
        _STATISTICS_WRITING_APP: mkvpropedit v66.0.0 ('Josie') 64-bit
        _STATISTICS_WRITING_DATE_UTC: 2025-07-23 09:44:12
        _STATISTICS_TAGS: BPS DURATION NUMBER_OF_FRAMES NUMBER_OF_BYTES
Input #1, mov,mp4,m4a,3gp,3g2,mj2, from 'G:\Аниме\Онгоинги\!_11_Лето_2018\Давайте сыграем\[AniDub]_Asobi_Asobase_[SP2]_[720p_x264_Aac]_[Sergei_Vasya_DreamySleep].mp4':
  Metadata:
    major_brand     : isom
    minor_version   : 512
    compatible_brands: isomiso2avc1mp41
    encoder         : Lavf57.25.100
  Duration: 00:05:28.23, start: 0.000000, bitrate: 1373 kb/s
  Stream #1:0[0x1](und): Video: h264 (High) (avc1 / 0x31637661), yuv420p(progressive), 1280x720 [SAR 1:1 DAR 16:9], 1175 kb/s, 23.98 fps, 23.98 tbr, 19184 tbn (default)
      Metadata:
        handler_name    : VideoHandler
        vendor_id       : [0][0][0][0]
  Stream #1:1[0x2](eng): Audio: aac (LC) (mp4a / 0x6134706D), 48000 Hz, stereo, fltp, 192 kb/s (default)
      Metadata:
        handler_name    : SoundHandler
        vendor_id       : [0][0][0][0]
Stream mapping:
  Stream #0:0 (hevc) -> settb:default
  Stream #1:0 (h264) -> settb:default
  ssim:default -> Stream #0:0 (wrapped_avframe)
  Stream #0:1 -> #0:1 (aac (native) -> pcm_s16le (native))
[swscaler @ 000001dd3467dd40] No accelerated colorspace conversion found from yuv420p to bgr48le.
[swscaler @ 000001dd348102c0] No accelerated colorspace conversion found from yuv420p to bgr48le.
[swscaler @ 000001dd3496aa00] No accelerated colorspace conversion found from yuv420p to bgr48le.
[swscaler @ 000001dd349cb0c0] No accelerated colorspace conversion found from yuv420p to bgr48le.
[swscaler @ 000001dd34a388c0] No accelerated colorspace conversion found from yuv420p to bgr48le.
[swscaler @ 000001dd34acf580] No accelerated colorspace conversion found from yuv420p to bgr48le.
[swscaler @ 000001dd34b2c040] No accelerated colorspace conversion found from yuv420p to bgr48le.
[swscaler @ 000001dd34b98740] No accelerated colorspace conversion found from yuv420p to bgr48le.
[swscaler @ 000001dd34bf6040] No accelerated colorspace conversion found from yuv420p to bgr48le.
[swscaler @ 000001dd34c83040] No accelerated colorspace conversion found from yuv420p to bgr48le.
[swscaler @ 000001dd34ceb040] No accelerated colorspace conversion found from yuv420p to bgr48le.
[swscaler @ 000001dd34d52040] No accelerated colorspace conversion found from yuv420p to bgr48le.
[swscaler @ 000001dd34daf040] No accelerated colorspace conversion found from yuv420p to bgr48le.
[swscaler @ 000001dd34e33040] No accelerated colorspace conversion found from yuv420p to bgr48le.
[swscaler @ 000001dd34e98040] No accelerated colorspace conversion found from yuv420p to bgr48le.
[swscaler @ 000001dd34f13040] No accelerated colorspace conversion found from yuv420p to bgr48le.
Output #0, null, to 'pipe:':
  Metadata:
    COMPATIBLE_BRANDS: isomiso2avc1mp41
    MAJOR_BRAND     : isom
    MINOR_VERSION   : 512
    encoder         : Lavf61.7.100
  Stream #0:0: Video: wrapped_avframe, yuv420p10le(tv, bt709, progressive), 1280x720 [SAR 1:1 DAR 16:9], q=2-31, 200 kb/s, 23.98 fps, 23.98 tbn
      Metadata:
        encoder         : Lavc61.19.100 wrapped_avframe
  Stream #0:1(eng): Audio: pcm_s16le, 48000 Hz, stereo, s16, 1536 kb/s (default)
      Metadata:
        HANDLER_NAME    : SoundHandler
        VENDOR_ID       : [0][0][0][0]
        _STATISTICS_TAGS: BPS DURATION NUMBER_OF_FRAMES NUMBER_OF_BYTES
        BPS             : 192771
        DURATION        : 00:05:28.192000000
        NUMBER_OF_FRAMES: 15385
        NUMBER_OF_BYTES : 7908243
        _STATISTICS_WRITING_APP: mkvpropedit v66.0.0 ('Josie') 64-bit
        _STATISTICS_WRITING_DATE_UTC: 2025-07-23 09:44:12
        encoder         : Lavc61.19.100 pcm_s16le
frame=   81 fps=0.0 q=-0.0 size=N/A time=00:00:03.37 bitrate=N/A speed=6.65x    frame=  181 fps=175 q=-0.0 size=N/A time=00:00:07.54 bitrate=N/A speed= 7.3x    frame=  280 fps=181 q=-0.0 size=N/A time=00:00:11.67 bitrate=N/A speed=7.55x    frame=  375 fps=182 q=-0.0 size=N/A time=00:00:15.64 bitrate=N/A speed=7.61x    frame=  477 fps=185 q=-0.0 size=N/A time=00:00:19.89 bitrate=N/A speed= 7.7x    frame=  583 fps=187 q=-0.0 size=N/A time=00:00:24.31 bitrate=N/A speed=7.82x    frame=  682 fps=188 q=-0.0 size=N/A time=00:00:28.44 bitrate=N/A speed=7.86x    frame=  782 fps=189 q=-0.0 size=N/A time=00:00:32.61 bitrate=N/A speed=7.87x    frame=  884 fps=190 q=-0.0 size=N/A time=00:00:36.87 bitrate=N/A speed=7.92x    frame=  981 fps=190 q=-0.0 size=N/A time=00:00:40.91 bitrate=N/A speed=7.92x    frame= 1070 fps=188 q=-0.0 size=N/A time=00:00:44.62 bitrate=N/A speed=7.86x    frame= 1182 fps=191 q=-0.0 size=N/A time=00:00:49.29 bitrate=N/A speed=7.95x    frame= 1285 fps=191 q=-0.0 size=N/A time=00:00:53.59 bitrate=N/A speed=7.99x    frame= 1388 fps=192 q=-0.0 size=N/A time=00:00:57.89 bitrate=N/A speed=   8x    frame= 1489 fps=192 q=-0.0 size=N/A time=00:01:02.10 bitrate=N/A speed=   8x    frame= 1589 fps=192 q=-0.0 size=N/A time=00:01:06.27 bitrate=N/A speed=8.01x    frame= 1689 fps=192 q=-0.0 size=N/A time=00:01:10.44 bitrate=N/A speed=8.02x    frame= 1791 fps=192 q=-0.0 size=N/A time=00:01:14.69 bitrate=N/A speed=8.02x    frame= 1891 fps=193 q=-0.0 size=N/A time=00:01:18.87 bitrate=N/A speed=8.03x    frame= 1990 fps=193 q=-0.0 size=N/A time=00:01:22.99 bitrate=N/A speed=8.03x    frame= 2094 fps=193 q=-0.0 size=N/A time=00:01:27.33 bitrate=N/A speed=8.04x    frame= 2191 fps=193 q=-0.0 size=N/A time=00:01:31.38 bitrate=N/A speed=8.04x    frame= 2289 fps=193 q=-0.0 size=N/A time=00:01:35.47 bitrate=N/A speed=8.04x    frame= 2391 fps=193 q=-0.0 size=N/A time=00:01:39.72 bitrate=N/A speed=8.04x    frame= 2487 fps=193 q=-0.0 size=N/A time=00:01:43.72 bitrate=N/A speed=8.03x    frame= 2583 fps=192 q=-0.0 size=N/A time=00:01:47.73 bitrate=N/A speed=8.02x    frame= 2674 fps=192 q=-0.0 size=N/A time=00:01:51.52 bitrate=N/A speed=7.99x    frame= 2774 fps=192 q=-0.0 size=N/A time=00:01:55.69 bitrate=N/A speed=   8x    frame= 2871 fps=192 q=-0.0 size=N/A time=00:01:59.74 bitrate=N/A speed=   8x    frame= 2967 fps=191 q=-0.0 size=N/A time=00:02:03.74 bitrate=N/A speed=7.99x    frame= 3047 fps=190 q=-0.0 size=N/A time=00:02:07.08 bitrate=N/A speed=7.94x    frame= 3160 fps=191 q=-0.0 size=N/A time=00:02:11.79 bitrate=N/A speed=7.97x    frame= 3258 fps=191 q=-0.0 size=N/A time=00:02:15.88 bitrate=N/A speed=7.97x    frame= 3357 fps=191 q=-0.0 size=N/A time=00:02:20.01 bitrate=N/A speed=7.97x    frame= 3453 fps=191 q=-0.0 size=N/A time=00:02:24.01 bitrate=N/A speed=7.97x    frame= 3551 fps=191 q=-0.0 size=N/A time=00:02:28.10 bitrate=N/A speed=7.97x    frame= 3647 fps=191 q=-0.0 size=N/A time=00:02:32.11 bitrate=N/A speed=7.96x    frame= 3746 fps=191 q=-0.0 size=N/A time=00:02:36.23 bitrate=N/A speed=7.96x    frame= 3855 fps=191 q=-0.0 size=N/A time=00:02:40.78 bitrate=N/A speed=7.99x    frame= 3950 fps=191 q=-0.0 size=N/A time=00:02:44.74 bitrate=N/A speed=7.98x    frame= 4054 fps=192 q=-0.0 size=N/A time=00:02:49.08 bitrate=N/A speed=7.99x    frame= 4154 fps=192 q=-0.0 size=N/A time=00:02:53.25 bitrate=N/A speed=7.99x    frame= 4247 fps=191 q=-0.0 size=N/A time=00:02:57.13 bitrate=N/A speed=7.98x    frame= 4349 fps=191 q=-0.0 size=N/A time=00:03:01.38 bitrate=N/A speed=7.99x    frame= 4445 fps=191 q=-0.0 size=N/A time=00:03:05.39 bitrate=N/A speed=7.98x    frame= 4542 fps=191 q=-0.0 size=N/A time=00:03:09.43 bitrate=N/A speed=7.98x    frame= 4630 fps=191 q=-0.0 size=N/A time=00:03:13.10 bitrate=N/A speed=7.96x    frame= 4738 fps=191 q=-0.0 size=N/A time=00:03:17.61 bitrate=N/A speed=7.98x    frame= 4838 fps=191 q=-0.0 size=N/A time=00:03:21.78 bitrate=N/A speed=7.98x    frame= 4937 fps=191 q=-0.0 size=N/A time=00:03:25.91 bitrate=N/A speed=7.98x    frame= 5035 fps=191 q=-0.0 size=N/A time=00:03:30.00 bitrate=N/A speed=7.98x    frame= 5130 fps=191 q=-0.0 size=N/A time=00:03:33.96 bitrate=N/A speed=7.97x    frame= 5230 fps=191 q=-0.0 size=N/A time=00:03:38.13 bitrate=N/A speed=7.97x    frame= 5330 fps=191 q=-0.0 size=N/A time=00:03:42.30 bitrate=N/A speed=7.98x    frame= 5430 fps=191 q=-0.0 size=N/A time=00:03:46.47 bitrate=N/A speed=7.98x    frame= 5520 fps=191 q=-0.0 size=N/A time=00:03:50.23 bitrate=N/A speed=7.96x    frame= 5633 fps=191 q=-0.0 size=N/A time=00:03:54.94 bitrate=N/A speed=7.99x    frame= 5731 fps=191 q=-0.0 size=N/A time=00:03:59.03 bitrate=N/A speed=7.99x    frame= 5827 fps=191 q=-0.0 size=N/A time=00:04:03.03 bitrate=N/A speed=7.98x    frame= 5927 fps=191 q=-0.0 size=N/A time=00:04:07.20 bitrate=N/A speed=7.98x    frame= 6037 fps=192 q=-0.0 size=N/A time=00:04:11.79 bitrate=N/A speed=   8x    frame= 6137 fps=192 q=-0.0 size=N/A time=00:04:15.96 bitrate=N/A speed=   8x    frame= 6239 fps=192 q=-0.0 size=N/A time=00:04:20.21 bitrate=N/A speed=   8x    frame= 6335 fps=192 q=-0.0 size=N/A time=00:04:24.22 bitrate=N/A speed=   8x    frame= 6437 fps=192 q=-0.0 size=N/A time=00:04:28.47 bitrate=N/A speed=8.01x    frame= 6537 fps=192 q=-0.0 size=N/A time=00:04:32.64 bitrate=N/A speed=   8x    frame= 6635 fps=192 q=-0.0 size=N/A time=00:04:36.73 bitrate=N/A speed=   8x    frame= 6735 fps=192 q=-0.0 size=N/A time=00:04:40.90 bitrate=N/A speed=8.01x    frame= 6834 fps=192 q=-0.0 size=N/A time=00:04:45.03 bitrate=N/A speed=   8x    frame= 6934 fps=192 q=-0.0 size=N/A time=00:04:49.20 bitrate=N/A speed=8.01x    frame= 7031 fps=192 q=-0.0 size=N/A time=00:04:53.25 bitrate=N/A speed=8.01x    frame= 7137 fps=192 q=-0.0 size=N/A time=00:04:57.67 bitrate=N/A speed=8.01x    frame= 7236 fps=192 q=-0.0 size=N/A time=00:05:01.80 bitrate=N/A speed=8.01x    frame= 7334 fps=192 q=-0.0 size=N/A time=00:05:05.88 bitrate=N/A speed=8.01x    frame= 7432 fps=192 q=-0.0 size=N/A time=00:05:09.97 bitrate=N/A speed=8.01x    frame= 7530 fps=192 q=-0.0 size=N/A time=00:05:14.06 bitrate=N/A speed=8.01x    frame= 7628 fps=192 q=-0.0 size=N/A time=00:05:18.15 bitrate=N/A speed=8.01x    frame= 7738 fps=192 q=-0.0 size=N/A time=00:05:22.73 bitrate=N/A speed=8.02x    frame= 7841 fps=192 q=-0.0 size=N/A time=00:05:27.03 bitrate=N/A speed=8.02x    [Parsed_ssim_10 @ 000001dd2ca9cb00] SSIM Y:0.992468 (21.230993) U:0.994335 (22.467658) V:0.994312 (22.450511) All:0.993087 (21.603058)
[out#0/null @ 000001dd2819f880] video:3382KiB audio:61540KiB subtitle:0KiB other streams:0KiB global headers:0KiB muxing overhead: unknown
frame= 7870 fps=192 q=-0.0 Lsize=N/A time=00:05:28.21 bitrate=N/A speed=8.02x    
